{
  "accessors": [
    {
      "bufferView": 2,
      "componentType": 5126,
      "count": 1321,
      "max": [
        1.8521509170532227,
        18.765983581542969,
        1.8521506786346436
      ],
      "min": [
        -1.8521503210067749,
        17.339870452880859,
        -1.8521502017974854
      ],
      "type": "VEC3"
    },
    {
      "bufferView": 2,
      "byteOffset": 15852,
      "componentType": 5126,
      "count": 1321,
      "max": [
        1,
        1,
        1
      ],
      "min": [
        -1,
        -0.97821635007858276,
        -1
      ],
      "type": "VEC3"
    },
    {
      "bufferView": 3,
      "componentType": 5126,
      "count": 1321,
      "max": [
        0.8307003378868103,
        0.99969315528869629,
        0.92594820261001587,
        1
      ],
      "min": [
        -0.87160295248031616,
        -0.99968761205673218,
        -0.99999940395355225,
        1
      ],
      "type": "VEC4"
    },
    {
      "bufferView": 1,
      "componentType": 5126,
      "count": 1321,
      "max": [
        0.93759417533874512,
        0.99950039386749268
      ],
      "min": [
        0.0004685521125793457,
        0.00049948692321777344
      ],
      "type": "VEC2"
    },
    {
      "bufferView": 0,
      "componentType": 5125,
      "count": 7200,
      "max": [
        1320
      ],
      "min": [
        0
      ],
      "type": "SCALAR"
    },
    {
      "bufferView": 2,
      "byteOffset": 31704,
      "componentType": 5126,
      "count": 4731,
      "max": [
        2.7973036766052246,
        16.825653076171875,
        2.7973031997680664
      ],
      "min": [
        -2.7973031997680664,
        -2.384185791015625e-07,
        -2.7973031997680664
      ],
      "type": "VEC3"
    },
    {
      "bufferView": 2,
      "byteOffset": 88476,
      "componentType": 5126,
      "count": 4731,
      "max": [
        1,
        0.85171669721603394,
        1
      ],
      "min": [
        -1,
        -1,
        -1
      ],
      "type": "VEC3"
    },
    {
      "bufferView": 3,
      "byteOffset": 21136,
      "componentType": 5126,
      "count": 4731,
      "max": [
        0.9919394850730896,
        0.99999994039535522,
        0.86145156621932983,
        1
      ],
      "min": [
        -0.8664441704750061,
        -0.99984043836593628,
        -0.90042775869369507,
        1
      ],
      "type": "VEC4"
    },
    {
      "bufferView": 1,
      "byteOffset": 10568,
      "componentType": 5126,
      "count": 4731,
      "max": [
        0.72442036867141724,
        0.92103588581085205
      ],
      "min": [
        0.00046509504318237305,
        0.00049948692321777344
      ],
      "type": "VEC2"
    },
    {
      "bufferView": 0,
      "byteOffset": 28800,
      "componentType": 5125,
      "count": 27360,
      "max": [
        4730
      ],
      "min": [
        0
      ],
      "type": "SCALAR"
    },
    {
      "bufferView": 2,
      "byteOffset": 145248,
      "componentType": 5126,
      "count": 1127,
      "max": [
        1.8463418483734131,
        17.600908279418945,
        1.846341609954834
      ],
      "min": [
        -1.8463417291641235,
        15.401178359985352,
        -1.846341609954834
      ],
      "type": "VEC3"
    },
    {
      "bufferView": 2,
      "byteOffset": 158772,
      "componentType": 5126,
      "count": 1127,
      "max": [
        1,
        0.99961715936660767,
        1
      ],
      "min": [
        -1,
        -0.4560663104057312,
        -1
      ],
      "type": "VEC3"
    },
    {
      "bufferView": 3,
      "byteOffset": 96832,
      "componentType": 5126,
      "count": 1127,
      "max": [
        0.85316234827041626,
        0.99416279792785645,
        0.99966526031494141,
        1
      ],
      "min": [
        -0.99924683570861816,
        -0.99287158250808716,
        -0.99841272830963135,
        1
      ],
      "type": "VEC4"
    },
    {
      "bufferView": 1,
      "byteOffset": 48416,
      "componentType": 5126,
      "count": 1127,
      "max": [
        0.93068641424179077,
        0.99950045347213745
      ],
      "min": [
        0.60253781080245972,
        0.62313568592071533
      ],
      "type": "VEC2"
    },
    {
      "bufferView": 0,
      "byteOffset": 138240,
      "componentType": 5125,
      "count": 6336,
      "max": [
        1126
      ],
      "min": [
        0
      ],
      "type": "SCALAR"
    }
  ],
  "asset": {
    "extras": {
      "author": "TheRoutine (https://sketchfab.com/TheRoutine)",
      "license": "CC-BY-4.0 (http://creativecommons.org/licenses/by/4.0/)",
      "source": "https://sketchfab.com/3d-models/water-bottle-42f0a41639a14d62ba6ccd77846ba7f1",
      "title": "Water Bottle"
    },
    "generator": "Sketchfab-8.59.0",
    "version": "2.0"
  },
  "bufferViews": [
    {
      "buffer": 0,
      "byteLength": 163584,
      "byteOffset": 0,
      "name": "floatBufferViews",
      "target": 34963
    },
    {
      "buffer": 0,
      "byteLength": 57432,
      "byteOffset": 163584,
      "byteStride": 8,
      "name": "floatBufferViews",
      "target": 34962
    },
    {
      "buffer": 0,
      "byteLength": 172296,
      "byteOffset": 221016,
      "byteStride": 12,
      "name": "floatBufferViews",
      "target": 34962
    },
    {
      "buffer": 0,
      "byteLength": 114864,
      "byteOffset": 393312,
      "byteStride": 16,
      "name": "floatBufferViews",
      "target": 34962
    }
  ],
  "buffers": [
    {
      "byteLength": 508176,
      "uri": "scene.bin"
    }
  ],
  "images": [
    {
      "uri": "textures/Water_Bottle_Lid_baseColor.png"
    },
    {
      "uri": "textures/Water_Bottle_Lid_metallicRoughness.png"
    },
    {
      "uri": "textures/Water_Bottle_Lid_normal.png"
    },
    {
      "uri": "textures/Water_Bottle_Yellow_Part_baseColor.png"
    },
    {
      "uri": "textures/Water_Bottle_Yellow_Part_metallicRoughness.png"
    },
    {
      "uri": "textures/Water_Bottle_Yellow_Part_normal.png"
    },
    {
      "uri": "textures/Water_Bottle_Metal_Part_baseColor.png"
    },
    {
      "uri": "textures/Water_Bottle_Metal_Part_metallicRoughness.png"
    },
    {
      "uri": "textures/Water_Bottle_Metal_Part_normal.png"
    }
  ],
  "materials": [
    {
      "doubleSided": true,
      "emissiveFactor": [
        0,
        0,
        0
      ],
      "name": "Water_Bottle_Lid",
      "normalTexture": {
        "index": 2,
        "scale": 1,
        "texCoord": 0
      },
      "pbrMetallicRoughness": {
        "baseColorFactor": [
          1,
          1,
          1,
          1
        ],
        "baseColorTexture": {
          "index": 0,
          "texCoord": 0
        },
        "metallicFactor": 1,
        "metallicRoughnessTexture": {
          "index": 1,
          "texCoord": 0
        },
        "roughnessFactor": 1
      }
    },
    {
      "doubleSided": true,
      "emissiveFactor": [
        0,
        0,
        0
      ],
      "name": "Water_Bottle_Yellow_Part",
      "normalTexture": {
        "index": 5,
        "scale": 1,
        "texCoord": 0
      },
      "pbrMetallicRoughness": {
        "baseColorFactor": [
          1,
          1,
          1,
          1
        ],
        "baseColorTexture": {
          "index": 3,
          "texCoord": 0
        },
        "metallicFactor": 1,
        "metallicRoughnessTexture": {
          "index": 4,
          "texCoord": 0
        },
        "roughnessFactor": 1
      }
    },
    {
      "doubleSided": true,
      "emissiveFactor": [
        0,
        0,
        0
      ],
      "name": "Water_Bottle_Metal_Part",
      "normalTexture": {
        "index": 8,
        "scale": 1,
        "texCoord": 0
      },
      "pbrMetallicRoughness": {
        "baseColorFactor": [
          1,
          1,
          1,
          1
        ],
        "baseColorTexture": {
          "index": 6,
          "texCoord": 0
        },
        "metallicFactor": 1,
        "metallicRoughnessTexture": {
          "index": 7,
          "texCoord": 0
        },
        "roughnessFactor": 1
      }
    }
  ],
  "meshes": [
    {
      "name": "Lid_Water_Bottle_Lid_0",
      "primitives": [
        {
          "attributes": {
            "NORMAL": 1,
            "POSITION": 0,
            "TANGENT": 2,
            "TEXCOORD_0": 3
          },
          "indices": 4,
          "material": 0,
          "mode": 4
        }
      ]
    },
    {
      "name": "Bottle_Water_Bottle_Yellow_Part_0",
      "primitives": [
        {
          "attributes": {
            "NORMAL": 6,
            "POSITION": 5,
            "TANGENT": 7,
            "TEXCOORD_0": 8
          },
          "indices": 9,
          "material": 1,
          "mode": 4
        }
      ]
    },
    {
      "name": "Bottle_Water_Bottle_Metal_Part_0",
      "primitives": [
        {
          "attributes": {
            "NORMAL": 11,
            "POSITION": 10,
            "TANGENT": 12,
            "TEXCOORD_0": 13
          },
          "indices": 14,
          "material": 2,
          "mode": 4
        }
      ]
    }
  ],
  "nodes": [
    {
      "children": [
        1
      ],
      "name": "RootNode (gltf orientation matrix)",
      "rotation": [
        -0.70710678118654746,
        -0,
        -0,
        0.70710678118654757
      ]
    },
    {
      "children": [
        2
      ],
      "name": "RootNode (model correction matrix)"
    },
    {
      "children": [
        3
      ],
      "matrix": [
        1,
        0,
        0,
        0,
        0,
        0,
        1,
        0,
        0,
        -1,
        0,
        0,
        0,
        0,
        0,
        1
      ],
      "name": "Water Bottle.fbx"
    },
    {
      "children": [
        4,
        6
      ],
      "name": "RootNode"
    },
    {
      "children": [
        5
      ],
      "name": "Lid"
    },
    {
      "mesh": 0,
      "name": "Lid_Water_Bottle_Lid_0"
    },
    {
      "children": [
        7,
        8
      ],
      "name": "Bottle"
    },
    {
      "mesh": 1,
      "name": "Bottle_Water_Bottle_Yellow_Part_0"
    },
    {
      "mesh": 2,
      "name": "Bottle_Water_Bottle_Metal_Part_0"
    }
  ],
  "samplers": [
    {
      "magFilter": 9729,
      "minFilter": 9987,
      "wrapS": 10497,
      "wrapT": 10497
    }
  ],
  "scene": 0,
  "scenes": [
    {
      "name": "OSG_Scene",
      "nodes": [
        0
      ]
    }
  ],
  "textures": [
    {
      "sampler": 0,
      "source": 0
    },
    {
      "sampler": 0,
      "source": 1
    },
    {
      "sampler": 0,
      "source": 2
    },
    {
      "sampler": 0,
      "source": 3
    },
    {
      "sampler": 0,
      "source": 4
    },
    {
      "sampler": 0,
      "source": 5
    },
    {
      "sampler": 0,
      "source": 6
    },
    {
      "sampler": 0,
      "source": 7
    },
    {
      "sampler": 0,
      "source": 8
    }
  ]
}

