{
  "accessors": [
    {
      "bufferView": 2,
      "componentType": 5126,
      "count": 2818,
      "max": [
        3.195728063583374,
        0.9724524021148682,
        0.9249911308288574
      ],
      "min": [
        -3.195727825164795,
        -0.9749444723129272,
        -0.5002085566520691
      ],
      "type": "VEC3"
    },
    {
      "bufferView": 2,
      "byteOffset": 33816,
      "componentType": 5126,
      "count": 2818,
      "max": [
        0.9978067874908447,
        0.9999920725822449,
        0.9999956488609314
      ],
      "min": [
        -0.9978067874908447,
        -0.9999920725822449,
        -0.9999998807907104
      ],
      "type": "VEC3"
    },
    {
      "bufferView": 1,
      "componentType": 5126,
      "count": 2818,
      "max": [
        0.9459924697875977,
        0.9902380108833313
      ],
      "min": [
        0.03646466135978699,
        0.04002728685736656
      ],
      "type": "VEC2"
    },
    {
      "bufferView": 0,
      "componentType": 5125,
      "count": 14208,
      "type": "SCALAR"
    }
  ],
  "asset": {
    "extras": {
      "author": "TorryMathis (https://sketchfab.com/TorryMathis)",
      "license": "CC-BY-4.0 (http://creativecommons.org/licenses/by/4.0/)",
      "source": "https://sketchfab.com/3d-models/bowtie-a3f9109d67fe429aa527428dcdac1c6e",
      "title": "Bowtie"
    },
    "generator": "Sketchfab-12.65.0",
    "version": "2.0"
  },
  "bufferViews": [
    {
      "buffer": 0,
      "byteLength": 56832,
      "name": "floatBufferViews",
      "target": 34963
    },
    {
      "buffer": 0,
      "byteLength": 22544,
      "byteOffset": 56832,
      "byteStride": 8,
      "name": "floatBufferViews",
      "target": 34962
    },
    {
      "buffer": 0,
      "byteLength": 67632,
      "byteOffset": 79376,
      "byteStride": 12,
      "name": "floatBufferViews",
      "target": 34962
    }
  ],
  "buffers": [
    {
      "byteLength": 147008,
      "uri": "scene.bin"
    }
  ],
  "images": [
    {
      "uri": "textures/lambert1_baseColor.png"
    }
  ],
  "materials": [
    {
      "doubleSided": true,
      "name": "lambert1",
      "pbrMetallicRoughness": {
        "baseColorFactor": [
          0.18464176829268295,
          0.18464176829268295,
          0.18464176829268295,
          1.0
        ],
        "baseColorTexture": {
          "index": 0
        },
        "metallicFactor": 0.0
      }
    }
  ],
  "meshes": [
    {
      "name": "pCube1_lambert1_0",
      "primitives": [
        {
          "attributes": {
            "NORMAL": 1,
            "POSITION": 0,
            "TEXCOORD_0": 2
          },
          "indices": 3,
          "material": 0,
          "mode": 4
        }
      ]
    }
  ],
  "nodes": [
    {
      "children": [
        1
      ],
      "matrix": [
        1.0,
        0.0,
        0.0,
        0.0,
        0.0,
        2.220446049250313e-16,
        -1.0,
        0.0,
        0.0,
        1.0,
        2.220446049250313e-16,
        0.0,
        0.0,
        0.0,
        0.0,
        1.0
      ],
      "name": "Sketchfab_model"
    },
    {
      "children": [
        2
      ],
      "matrix": [
        1.0,
        0.0,
        0.0,
        0.0,
        0.0,
        0.0,
        1.0,
        0.0,
        0.0,
        -1.0,
        0.0,
        0.0,
        0.0,
        0.0,
        0.0,
        1.0
      ],
      "name": "2da759887ea44886b6e9147b647429c2.fbx"
    },
    {
      "children": [
        3
      ],
      "name": "RootNode"
    },
    {
      "children": [
        4
      ],
      "matrix": [
        0.31505686044692993,
        0.0,
        0.0,
        0.0,
        0.0,
        0.42922982573509216,
        0.0,
        0.0,
        0.0,
        0.0,
        0.28260353207588196,
        0.0,
        0.0,
        0.6971142888069153,
        0.0,
        1.0
      ],
      "name": "pCube1"
    },
    {
      "mesh": 0,
      "name": "pCube1_lambert1_0"
    }
  ],
  "samplers": [
    {
      "magFilter": 9729,
      "minFilter": 9987,
      "wrapS": 10497,
      "wrapT": 10497
    }
  ],
  "scene": 0,
  "scenes": [
    {
      "name": "Sketchfab_Scene",
      "nodes": [
        0
      ]
    }
  ],
  "textures": [
    {
      "sampler": 0,
      "source": 0
    }
  ]
}
