{
  "accessors": [
    {
      "bufferView": 2,
      "componentType": 5126,
      "count": 3375,
      "max": [
        1.7893050909042358,
        0.9270457625389099,
        0.353657990694046
      ],
      "min": [
        -2.0424437522888184,
        -0.9276923537254333,
        -0.4261077344417572
      ],
      "type": "VEC3"
    },
    {
      "bufferView": 2,
      "byteOffset": 40500,
      "componentType": 5126,
      "count": 3375,
      "max": [
        1.0,
        1.0,
        1.0
      ],
      "min": [
        -1.0,
        -1.0,
        -1.0
      ],
      "type": "VEC3"
    },
    {
      "bufferView": 1,
      "componentType": 5126,
      "count": 3375,
      "max": [
        0.9999999403953552,
        0.9884772896766663
      ],
      "min": [
        0.0,
        0.0
      ],
      "type": "VEC2"
    },
    {
      "bufferView": 0,
      "componentType": 5125,
      "count": 17232,
      "type": "SCALAR"
    }
  ],
  "asset": {
    "extras": {
      "author": "DV assets (https://sketchfab.com/DVassets)",
      "license": "CC-BY-NC-4.0 (http://creativecommons.org/licenses/by-nc/4.0/)",
      "source": "https://sketchfab.com/3d-models/red-cooking-pot-136448f5c07f477ab020105515e97a25",
      "title": "Red Cooking Pot"
    },
    "generator": "Sketchfab-12.66.0",
    "version": "2.0"
  },
  "bufferViews": [
    {
      "buffer": 0,
      "byteLength": 68928,
      "name": "floatBufferViews",
      "target": 34963
    },
    {
      "buffer": 0,
      "byteLength": 27000,
      "byteOffset": 68928,
      "byteStride": 8,
      "name": "floatBufferViews",
      "target": 34962
    },
    {
      "buffer": 0,
      "byteLength": 81000,
      "byteOffset": 95928,
      "byteStride": 12,
      "name": "floatBufferViews",
      "target": 34962
    }
  ],
  "buffers": [
    {
      "byteLength": 176928,
      "uri": "scene.bin"
    }
  ],
  "images": [
    {
      "uri": "textures/CookingPot_baseColor.png"
    },
    {
      "uri": "textures/CookingPot_metallicRoughness.png"
    }
  ],
  "materials": [
    {
      "doubleSided": true,
      "name": "CookingPot",
      "pbrMetallicRoughness": {
        "baseColorTexture": {
          "index": 0
        },
        "metallicRoughnessTexture": {
          "index": 1
        }
      }
    }
  ],
  "meshes": [
    {
      "name": "OllitaLow_CookingPot_0",
      "primitives": [
        {
          "attributes": {
            "NORMAL": 1,
            "POSITION": 0,
            "TEXCOORD_0": 2
          },
          "indices": 3,
          "material": 0,
          "mode": 4
        }
      ]
    }
  ],
  "nodes": [
    {
      "children": [
        1
      ],
      "matrix": [
        1.0,
        0.0,
        0.0,
        0.0,
        0.0,
        2.220446049250313e-16,
        -1.0,
        0.0,
        0.0,
        1.0,
        2.220446049250313e-16,
        0.0,
        0.0,
        0.0,
        0.0,
        1.0
      ],
      "name": "Sketchfab_model"
    },
    {
      "children": [
        2
      ],
      "matrix": [
        0.009999999776482582,
        0.0,
        0.0,
        0.0,
        0.0,
        0.0,
        0.009999999776482582,
        0.0,
        0.0,
        -0.009999999776482582,
        0.0,
        0.0,
        0.0,
        0.0,
        0.0,
        1.0
      ],
      "name": "RedCookingPot.fbx"
    },
    {
      "children": [
        3
      ],
      "name": "RootNode"
    },
    {
      "children": [
        4
      ],
      "matrix": [
        100.0,
        0.0,
        0.0,
        0.0,
        0.0,
        5.523350578018338e-05,
        -99.99999999998475,
        0.0,
        0.0,
        99.99999999998475,
        5.523350578018338e-05,
        0.0,
        109.35647583007813,
        77.41326904296875,
        0.0,
        1.0
      ],
      "name": "OllitaLow"
    },
    {
      "mesh": 0,
      "name": "OllitaLow_CookingPot_0"
    }
  ],
  "samplers": [
    {
      "magFilter": 9729,
      "minFilter": 9987,
      "wrapS": 10497,
      "wrapT": 10497
    }
  ],
  "scene": 0,
  "scenes": [
    {
      "name": "Sketchfab_Scene",
      "nodes": [
        0
      ]
    }
  ],
  "textures": [
    {
      "sampler": 0,
      "source": 0
    },
    {
      "sampler": 0,
      "source": 1
    }
  ]
}
