{
  "accessors": [
    {
      "bufferView": 2,
      "componentType": 5126,
      "count": 727,
      "max": [
        19.133819580078125,
        15.032379150390625,
        139.0873565673828
      ],
      "min": [
        -18.69964599609375,
        -15.032379150390625,
        -8.333831787109375
      ],
      "type": "VEC3"
    },
    {
      "bufferView": 2,
      "byteOffset": 8724,
      "componentType": 5126,
      "count": 727,
      "max": [
        1.0,
        1.0,
        1.0
      ],
      "min": [
        -1.0,
        -1.0,
        -1.0
      ],
      "type": "VEC3"
    },
    {
      "bufferView": 1,
      "componentType": 5126,
      "count": 727,
      "max": [
        0.998884916305542,
        2.2056398391723633
      ],
      "min": [
        0.0061367531307041645,
        -0.00036090007051825523
      ],
      "type": "VEC2"
    },
    {
      "bufferView": 0,
      "componentType": 5125,
      "count": 3192,
      "type": "SCALAR"
    }
  ],
  "asset": {
    "extras": {
      "author": "renzcabiscuelas (https://sketchfab.com/renzcabiscuelas)",
      "license": "CC-BY-4.0 (http://creativecommons.org/licenses/by/4.0/)",
      "source": "https://sketchfab.com/3d-models/coat-rack-2d581c7d6468434aac479c50f87d48d0",
      "title": "coat rack"
    },
    "generator": "Sketchfab-12.66.0",
    "version": "2.0"
  },
  "bufferViews": [
    {
      "buffer": 0,
      "byteLength": 12768,
      "name": "floatBufferViews",
      "target": 34963
    },
    {
      "buffer": 0,
      "byteLength": 5816,
      "byteOffset": 12768,
      "byteStride": 8,
      "name": "floatBufferViews",
      "target": 34962
    },
    {
      "buffer": 0,
      "byteLength": 17448,
      "byteOffset": 18584,
      "byteStride": 12,
      "name": "floatBufferViews",
      "target": 34962
    }
  ],
  "buffers": [
    {
      "byteLength": 36032,
      "uri": "scene.bin"
    }
  ],
  "images": [
    {
      "uri": "textures/Material_2_baseColor.png"
    }
  ],
  "materials": [
    {
      "doubleSided": true,
      "name": "Material_2",
      "pbrMetallicRoughness": {
        "baseColorTexture": {
          "index": 0
        },
        "metallicFactor": 0.0,
        "roughnessFactor": 0.6
      }
    }
  ],
  "meshes": [
    {
      "name": "pole_Material #2_0",
      "primitives": [
        {
          "attributes": {
            "NORMAL": 1,
            "POSITION": 0,
            "TEXCOORD_0": 2
          },
          "indices": 3,
          "material": 0,
          "mode": 4
        }
      ]
    }
  ],
  "nodes": [
    {
      "children": [
        1
      ],
      "matrix": [
        1.0,
        0.0,
        0.0,
        0.0,
        0.0,
        2.220446049250313e-16,
        -1.0,
        0.0,
        0.0,
        1.0,
        2.220446049250313e-16,
        0.0,
        0.0,
        0.0,
        0.0,
        1.0
      ],
      "name": "Sketchfab_model"
    },
    {
      "children": [
        2
      ],
      "matrix": [
        1.0,
        0.0,
        0.0,
        0.0,
        0.0,
        0.0,
        1.0,
        0.0,
        0.0,
        -1.0,
        0.0,
        0.0,
        0.0,
        0.0,
        0.0,
        1.0
      ],
      "name": "601d1a02393b4e1abe469f5b1398e1ce.fbx"
    },
    {
      "children": [
        3
      ],
      "name": "RootNode"
    },
    {
      "children": [
        4
      ],
      "matrix": [
        1.0,
        0.0,
        0.0,
        0.0,
        0.0,
        2.220446049250313e-16,
        -1.0,
        0.0,
        0.0,
        1.0,
        2.220446049250313e-16,
        0.0,
        0.6011810302734375,
        0.0,
        0.0,
        1.0
      ],
      "name": "pole"
    },
    {
      "mesh": 0,
      "name": "pole_Material #2_0"
    }
  ],
  "samplers": [
    {
      "magFilter": 9729,
      "minFilter": 9987,
      "wrapS": 10497,
      "wrapT": 10497
    }
  ],
  "scene": 0,
  "scenes": [
    {
      "name": "Sketchfab_Scene",
      "nodes": [
        0
      ]
    }
  ],
  "textures": [
    {
      "sampler": 0,
      "source": 0
    }
  ]
}
