{
  "accessors": [
    {
      "bufferView": 2,
      "componentType": 5126,
      "count": 62,
      "max": [
        0.07772831618785858,
        1.7053139209747314,
        0.0667395144701004
      ],
      "min": [
        -0.07772831618785858,
        1.6786376237869263,
        -0.11591757833957672
      ],
      "type": "VEC3"
    },
    {
      "bufferView": 2,
      "byteOffset": 744,
      "componentType": 5126,
      "count": 62,
      "max": [
        0.9990776777267456,
        3.051938983844593e-05,
        0.6547537446022034
      ],
      "min": [
        -0.9990776777267456,
        -0.1767047792673111,
        -1.0
      ],
      "type": "VEC3"
    },
    {
      "bufferView": 3,
      "componentType": 5126,
      "count": 62,
      "max": [
        0.6640278100967407,
        0.11679477989673615,
        0.9945963621139526,
        1.0
      ],
      "min": [
        -1.0,
        -0.11679107695817947,
        -0.994600236415863,
        1.0
      ],
      "type": "VEC4"
    },
    {
      "bufferView": 1,
      "componentType": 5126,
      "count": 62,
      "max": [
        0.9996878504753113,
        0.9995564222335815
      ],
      "min": [
        0.00037057779263705015,
        0.9718194007873535
      ],
      "type": "VEC2"
    },
    {
      "bufferView": 1,
      "byteOffset": 496,
      "componentType": 5126,
      "count": 62,
      "max": [
        0.9996878504753113,
        0.9995564222335815
      ],
      "min": [
        0.00037057779263705015,
        0.9718194007873535
      ],
      "type": "VEC2"
    },
    {
      "bufferView": 1,
      "byteOffset": 992,
      "componentType": 5126,
      "count": 62,
      "max": [
        0.9996878504753113,
        0.9995564222335815
      ],
      "min": [
        0.00037057779263705015,
        0.9718194007873535
      ],
      "type": "VEC2"
    },
    {
      "bufferView": 1,
      "byteOffset": 1488,
      "componentType": 5126,
      "count": 62,
      "max": [
        0.9996878504753113,
        0.9995564222335815
      ],
      "min": [
        0.00037057779263705015,
        0.9718194007873535
      ],
      "type": "VEC2"
    },
    {
      "bufferView": 0,
      "componentType": 5125,
      "count": 180,
      "type": "SCALAR"
    },
    {
      "bufferView": 2,
      "byteOffset": 1488,
      "componentType": 5126,
      "count": 15,
      "max": [
        0.07635106146335602,
        1.7180458307266235,
        0.10169857740402222
      ],
      "min": [
        -0.07635106146335602,
        1.6405470371246338,
        0.0508161224424839
      ],
      "type": "VEC3"
    },
    {
      "bufferView": 2,
      "byteOffset": 1668,
      "componentType": 5126,
      "count": 15,
      "max": [
        0.7399986386299133,
        0.2787656784057617,
        0.9972121715545654
      ],
      "min": [
        -0.7399986386299133,
        -0.26329007744789124,
        0.646304726600647
      ],
      "type": "VEC3"
    },
    {
      "bufferView": 3,
      "byteOffset": 992,
      "componentType": 5126,
      "count": 15,
      "max": [
        1.0,
        0.11283749341964722,
        0.7388917207717896,
        1.0
      ],
      "min": [
        0.6678580045700073,
        -0.1128394827246666,
        -0.7388914227485657,
        1.0
      ],
      "type": "VEC4"
    },
    {
      "bufferView": 1,
      "byteOffset": 1984,
      "componentType": 5126,
      "count": 15,
      "max": [
        0.9818531274795532,
        0.4585103690624237
      ],
      "min": [
        7.997646753210574e-05,
        0.06120174378156662
      ],
      "type": "VEC2"
    },
    {
      "bufferView": 1,
      "byteOffset": 2104,
      "componentType": 5126,
      "count": 15,
      "max": [
        0.9818531274795532,
        0.4585103690624237
      ],
      "min": [
        7.997646753210574e-05,
        0.06120174378156662
      ],
      "type": "VEC2"
    },
    {
      "bufferView": 1,
      "byteOffset": 2224,
      "componentType": 5126,
      "count": 15,
      "max": [
        0.9818531274795532,
        0.4585103690624237
      ],
      "min": [
        7.997646753210574e-05,
        0.06120174378156662
      ],
      "type": "VEC2"
    },
    {
      "bufferView": 1,
      "byteOffset": 2344,
      "componentType": 5126,
      "count": 15,
      "max": [
        0.9818531274795532,
        0.4585103690624237
      ],
      "min": [
        7.997646753210574e-05,
        0.06120174378156662
      ],
      "type": "VEC2"
    },
    {
      "bufferView": 0,
      "byteOffset": 720,
      "componentType": 5125,
      "count": 48,
      "type": "SCALAR"
    }
  ],
  "asset": {
    "extras": {
      "author": "SupaRioAmateur (https://sketchfab.com/suparioamateur)",
      "license": "CC-BY-4.0 (http://creativecommons.org/licenses/by/4.0/)",
      "source": "https://sketchfab.com/3d-models/silk-sleep-mask-e010cefb12434adaa70c64b0f9bae79a",
      "title": "Silk Sleep Mask"
    },
    "generator": "Sketchfab-12.68.0",
    "version": "2.0"
  },
  "bufferViews": [
    {
      "buffer": 0,
      "byteLength": 912,
      "name": "floatBufferViews",
      "target": 34963
    },
    {
      "buffer": 0,
      "byteLength": 2464,
      "byteOffset": 912,
      "byteStride": 8,
      "name": "floatBufferViews",
      "target": 34962
    },
    {
      "buffer": 0,
      "byteLength": 1848,
      "byteOffset": 3376,
      "byteStride": 12,
      "name": "floatBufferViews",
      "target": 34962
    },
    {
      "buffer": 0,
      "byteLength": 1232,
      "byteOffset": 5224,
      "byteStride": 16,
      "name": "floatBufferViews",
      "target": 34962
    }
  ],
  "buffers": [
    {
      "byteLength": 6456,
      "uri": "scene.bin"
    }
  ],
  "extensionsRequired": [
    "KHR_materials_pbrSpecularGlossiness"
  ],
  "extensionsUsed": [
    "KHR_materials_pbrSpecularGlossiness"
  ],
  "images": [
    {
      "uri": "textures/Strap_diffuse.png"
    },
    {
      "uri": "textures/Strap_specularGlossiness.png"
    },
    {
      "uri": "textures/Strap_normal.jpeg"
    },
    {
      "uri": "textures/Mask_diffuse.png"
    },
    {
      "uri": "textures/Mask_specularGlossiness.png"
    }
  ],
  "materials": [
    {
      "doubleSided": true,
      "extensions": {
        "KHR_materials_pbrSpecularGlossiness": {
          "diffuseFactor": [
            1.0,
            1.0,
            1.0,
            1.0
          ],
          "diffuseTexture": {
            "index": 0
          },
          "glossinessFactor": 1.0,
          "specularFactor": [
            1.0,
            1.0,
            1.0
          ],
          "specularGlossinessTexture": {
            "index": 1
          }
        }
      },
      "name": "Strap",
      "normalTexture": {
        "index": 2
      }
    },
    {
      "alphaMode": "BLEND",
      "doubleSided": true,
      "extensions": {
        "KHR_materials_pbrSpecularGlossiness": {
          "diffuseFactor": [
            1.0,
            1.0,
            1.0,
            1.0
          ],
          "diffuseTexture": {
            "index": 3
          },
          "glossinessFactor": 1.0,
          "specularFactor": [
            1.0,
            1.0,
            1.0
          ],
          "specularGlossinessTexture": {
            "index": 4
          }
        }
      },
      "name": "Mask",
      "normalTexture": {
        "index": 2
      }
    }
  ],
  "meshes": [
    {
      "name": "Object_0",
      "primitives": [
        {
          "attributes": {
            "NORMAL": 1,
            "POSITION": 0,
            "TANGENT": 2,
            "TEXCOORD_0": 3,
            "TEXCOORD_1": 4,
            "TEXCOORD_2": 5,
            "TEXCOORD_3": 6
          },
          "indices": 7,
          "material": 0,
          "mode": 4
        }
      ]
    },
    {
      "name": "Object_1",
      "primitives": [
        {
          "attributes": {
            "NORMAL": 9,
            "POSITION": 8,
            "TANGENT": 10,
            "TEXCOORD_0": 11,
            "TEXCOORD_1": 12,
            "TEXCOORD_2": 13,
            "TEXCOORD_3": 14
          },
          "indices": 15,
          "material": 1,
          "mode": 4
        }
      ]
    }
  ],
  "nodes": [
    {
      "children": [
        1
      ],
      "matrix": [
        1.0,
        0.0,
        0.0,
        0.0,
        0.0,
        2.220446049250313e-16,
        -1.0,
        0.0,
        0.0,
        1.0,
        2.220446049250313e-16,
        0.0,
        0.0,
        0.0,
        0.0,
        1.0
      ],
      "name": "Sketchfab_model"
    },
    {
      "children": [
        2
      ],
      "name": "root"
    },
    {
      "children": [
        3,
        5
      ],
      "matrix": [
        1.0,
        0.0,
        0.0,
        0.0,
        0.0,
        2.220446049250313e-16,
        1.0,
        0.0,
        0.0,
        -1.0,
        2.220446049250313e-16,
        0.0,
        0.0,
        0.0,
        0.0,
        1.0
      ],
      "name": "GLTF_SceneRootNode"
    },
    {
      "children": [
        4
      ],
      "name": "Strap Low_83"
    },
    {
      "mesh": 0,
      "name": "Object_4"
    },
    {
      "children": [
        6
      ],
      "name": "Mask Lower Fix_84"
    },
    {
      "mesh": 1,
      "name": "Object_6"
    }
  ],
  "samplers": [
    {
      "magFilter": 9729,
      "minFilter": 9987,
      "wrapS": 10497,
      "wrapT": 10497
    }
  ],
  "scene": 0,
  "scenes": [
    {
      "name": "Sketchfab_Scene",
      "nodes": [
        0
      ]
    }
  ],
  "textures": [
    {
      "sampler": 0,
      "source": 0
    },
    {
      "sampler": 0,
      "source": 1
    },
    {
      "sampler": 0,
      "source": 2
    },
    {
      "sampler": 0,
      "source": 3
    },
    {
      "sampler": 0,
      "source": 4
    }
  ]
}
