{
  "accessors": [
    {
      "bufferView": 2,
      "componentType": 5126,
      "count": 2800,
      "max": [
        21.944904327392578,
        128.166259765625,
        9.153897285461426
      ],
      "min": [
        -7.248076438903809,
        -5.1931610107421875,
        -2.035133123397827
      ],
      "type": "VEC3"
    },
    {
      "bufferView": 2,
      "byteOffset": 33600,
      "componentType": 5126,
      "count": 2800,
      "max": [
        1.0,
        1.0,
        1.0
      ],
      "min": [
        -1.0,
        -1.0,
        -1.0
      ],
      "type": "VEC3"
    },
    {
      "bufferView": 3,
      "componentType": 5126,
      "count": 2800,
      "max": [
        1.0,
        1.0,
        1.0,
        1.0
      ],
      "min": [
        -1.0,
        -1.0,
        -1.0,
        -1.0
      ],
      "type": "VEC4"
    },
    {
      "bufferView": 1,
      "componentType": 5126,
      "count": 2800,
      "max": [
        0.9929196834564209,
        0.9871653914451599
      ],
      "min": [
        0.013830218464136124,
        0.00580153614282608
      ],
      "type": "VEC2"
    },
    {
      "bufferView": 0,
      "componentType": 5125,
      "count": 7866,
      "type": "SCALAR"
    },
    {
      "bufferView": 2,
      "byteOffset": 67200,
      "componentType": 5126,
      "count": 51,
      "max": [
        15.046972274780273,
        97.75460815429688,
        4.4296159744262695
      ],
      "min": [
        10.7899808883667,
        70.84492492675781,
        2.5360007286071777
      ],
      "type": "VEC3"
    },
    {
      "bufferView": 2,
      "byteOffset": 67812,
      "componentType": 5126,
      "count": 51,
      "max": [
        3.0065666578593664e-07,
        5.79613299578341e-07,
        1.0
      ],
      "min": [
        -5.183203484193655e-07,
        -6.398884124791948e-07,
        -1.0
      ],
      "type": "VEC3"
    },
    {
      "bufferView": 3,
      "byteOffset": 44800,
      "componentType": 5126,
      "count": 51,
      "max": [
        1.0,
        1.3292016774357762e-05,
        5.183215989745804e-07,
        1.0
      ],
      "min": [
        -1.0,
        -9.102213880396448e-06,
        -3.0066314593568677e-07,
        1.0
      ],
      "type": "VEC4"
    },
    {
      "bufferView": 1,
      "byteOffset": 22400,
      "componentType": 5126,
      "count": 51,
      "max": [
        0.956129789352417,
        0.33553919196128845
      ],
      "min": [
        0.8619160652160645,
        0.06521281599998474
      ],
      "type": "VEC2"
    },
    {
      "bufferView": 0,
      "byteOffset": 31464,
      "componentType": 5125,
      "count": 60,
      "type": "SCALAR"
    }
  ],
  "asset": {
    "extras": {
      "author": "Michael Makivic (https://sketchfab.com/makivic)",
      "license": "CC-BY-4.0 (http://creativecommons.org/licenses/by/4.0/)",
      "source": "https://sketchfab.com/3d-models/weathered-wrench-game-model-66b29c557ce04bb0b14bdde2cc204a2f",
      "title": "Weathered Wrench (Game Model)"
    },
    "generator": "Sketchfab-12.67.0",
    "version": "2.0"
  },
  "bufferViews": [
    {
      "buffer": 0,
      "byteLength": 31704,
      "name": "floatBufferViews",
      "target": 34963
    },
    {
      "buffer": 0,
      "byteLength": 22808,
      "byteOffset": 31704,
      "byteStride": 8,
      "name": "floatBufferViews",
      "target": 34962
    },
    {
      "buffer": 0,
      "byteLength": 68424,
      "byteOffset": 54512,
      "byteStride": 12,
      "name": "floatBufferViews",
      "target": 34962
    },
    {
      "buffer": 0,
      "byteLength": 45616,
      "byteOffset": 122936,
      "byteStride": 16,
      "name": "floatBufferViews",
      "target": 34962
    }
  ],
  "buffers": [
    {
      "byteLength": 168552,
      "uri": "scene.bin"
    }
  ],
  "images": [
    {
      "uri": "textures/RootNode_baseColor.png"
    },
    {
      "uri": "textures/RootNode_metallicRoughness.png"
    },
    {
      "uri": "textures/RootNode_normal.png"
    }
  ],
  "materials": [
    {
      "doubleSided": true,
      "name": "RootNode",
      "normalTexture": {
        "index": 2
      },
      "pbrMetallicRoughness": {
        "baseColorTexture": {
          "index": 0
        },
        "metallicRoughnessTexture": {
          "index": 1
        }
      }
    }
  ],
  "meshes": [
    {
      "name": "wrench_low__0",
      "primitives": [
        {
          "attributes": {
            "NORMAL": 1,
            "POSITION": 0,
            "TANGENT": 2,
            "TEXCOORD_0": 3
          },
          "indices": 4,
          "material": 0,
          "mode": 4
        }
      ]
    },
    {
      "name": "Object001__0",
      "primitives": [
        {
          "attributes": {
            "NORMAL": 6,
            "POSITION": 5,
            "TANGENT": 7,
            "TEXCOORD_0": 8
          },
          "indices": 9,
          "material": 0,
          "mode": 4
        }
      ]
    }
  ],
  "nodes": [
    {
      "children": [
        1
      ],
      "matrix": [
        1.0,
        0.0,
        0.0,
        0.0,
        0.0,
        2.220446049250313e-16,
        -1.0,
        0.0,
        0.0,
        1.0,
        2.220446049250313e-16,
        0.0,
        0.0,
        0.0,
        0.0,
        1.0
      ],
      "name": "Sketchfab_model"
    },
    {
      "children": [
        2
      ],
      "matrix": [
        1.0,
        0.0,
        0.0,
        0.0,
        0.0,
        0.0,
        1.0,
        0.0,
        0.0,
        -1.0,
        0.0,
        0.0,
        0.0,
        0.0,
        0.0,
        1.0
      ],
      "name": "98dd467acaab413e886418fe03581e0a.fbx"
    },
    {
      "children": [
        3,
        6
      ],
      "name": "RootNode"
    },
    {
      "children": [
        4
      ],
      "matrix": [
        1.0,
        0.0,
        0.0,
        0.0,
        0.0,
        0.9999999999999867,
        1.6292068494294582e-07,
        0.0,
        0.0,
        -1.6292068494294582e-07,
        0.9999999999999867,
        0.0,
        0.0,
        -53.65235137939453,
        0.0,
        1.0
      ],
      "name": "wrench_low"
    },
    {
      "children": [
        5
      ],
      "matrix": [
        1.0,
        0.0,
        -0.0,
        0.0,
        0.0,
        1.0,
        0.0,
        0.0,
        0.0,
        0.0,
        1.0,
        0.0,
        0.0,
        2.59657621383667,
        -3.482823610305786,
        1.0
      ],
      "name": "Object_4"
    },
    {
      "mesh": 0,
      "name": "wrench_low__0"
    },
    {
      "children": [
        7
      ],
      "matrix": [
        1.0,
        0.0,
        0.0,
        0.0,
        0.0,
        0.9999999999999867,
        1.6292068494294582e-07,
        0.0,
        0.0,
        -1.6292068494294582e-07,
        0.9999999999999867,
        0.0,
        0.0,
        -53.65235137939453,
        0.0,
        1.0
      ],
      "name": "Object001"
    },
    {
      "children": [
        8
      ],
      "matrix": [
        1.0,
        0.0,
        -0.0,
        0.0,
        0.0,
        1.0,
        0.0,
        0.0,
        0.0,
        0.0,
        1.0,
        0.0,
        0.0,
        2.59657621383667,
        -3.482823610305786,
        1.0
      ],
      "name": "Object_7"
    },
    {
      "mesh": 1,
      "name": "Object001__0"
    }
  ],
  "samplers": [
    {
      "magFilter": 9729,
      "minFilter": 9987,
      "wrapS": 10497,
      "wrapT": 10497
    }
  ],
  "scene": 0,
  "scenes": [
    {
      "name": "Sketchfab_Scene",
      "nodes": [
        0
      ]
    }
  ],
  "textures": [
    {
      "sampler": 0,
      "source": 0
    },
    {
      "sampler": 0,
      "source": 1
    },
    {
      "sampler": 0,
      "source": 2
    }
  ]
}
