{
  "accessors": [
    {
      "bufferView": 2,
      "componentType": 5126,
      "count": 525,
      "max": [
        0.10765033960342407,
        0.09631361812353134,
        0.31684526801109314
      ],
      "min": [
        -0.10010306537151337,
        -0.10338816791772842,
        3.531016409397125e-05
      ],
      "type": "VEC3"
    },
    {
      "bufferView": 2,
      "byteOffset": 6300,
      "componentType": 5126,
      "count": 525,
      "max": [
        0.9975427389144897,
        0.9998962879180908,
        0.9708985090255737
      ],
      "min": [
        -0.9999891519546509,
        -0.9997780323028564,
        -1.0
      ],
      "type": "VEC3"
    },
    {
      "bufferView": 3,
      "componentType": 5126,
      "count": 525,
      "max": [
        0.986221969127655,
        0.9997965097427368,
        0.8274036645889282,
        1.0
      ],
      "min": [
        -0.9850951433181763,
        -0.9853408336639404,
        -0.9999642968177795,
        1.0
      ],
      "type": "VEC4"
    },
    {
      "bufferView": 1,
      "componentType": 5126,
      "count": 525,
      "max": [
        0.9804933071136475,
        0.9877487421035767
      ],
      "min": [
        0.012251240201294422,
        0.012251240201294422
      ],
      "type": "VEC2"
    },
    {
      "bufferView": 1,
      "byteOffset": 4200,
      "componentType": 5126,
      "count": 525,
      "max": [
        0.9804933071136475,
        0.9877487421035767
      ],
      "min": [
        0.012251240201294422,
        0.012251240201294422
      ],
      "type": "VEC2"
    },
    {
      "bufferView": 0,
      "componentType": 5125,
      "count": 2622,
      "type": "SCALAR"
    }
  ],
  "asset": {
    "extras": {
      "author": "Meerschaum Digital (https://sketchfab.com/meerschaumdigital)",
      "license": "CC-BY-4.0 (http://creativecommons.org/licenses/by/4.0/)",
      "source": "https://sketchfab.com/3d-models/salt-rock-lamp-game-ready-2k-pbr-2d7ce5f36be04a2089e74c224e694ad5",
      "title": "Salt Rock Lamp (Game Ready / 2K PBR)"
    },
    "generator": "Sketchfab-12.68.0",
    "version": "2.0"
  },
  "bufferViews": [
    {
      "buffer": 0,
      "byteLength": 10488,
      "name": "floatBufferViews",
      "target": 34963
    },
    {
      "buffer": 0,
      "byteLength": 8400,
      "byteOffset": 10488,
      "byteStride": 8,
      "name": "floatBufferViews",
      "target": 34962
    },
    {
      "buffer": 0,
      "byteLength": 12600,
      "byteOffset": 18888,
      "byteStride": 12,
      "name": "floatBufferViews",
      "target": 34962
    },
    {
      "buffer": 0,
      "byteLength": 8400,
      "byteOffset": 31488,
      "byteStride": 16,
      "name": "floatBufferViews",
      "target": 34962
    }
  ],
  "buffers": [
    {
      "byteLength": 39888,
      "uri": "scene.bin"
    }
  ],
  "images": [
    {
      "uri": "textures/Salt_Rock_Lamp_PBR_baseColor.jpeg"
    },
    {
      "uri": "textures/Salt_Rock_Lamp_PBR_metallicRoughness.png"
    },
    {
      "uri": "textures/Salt_Rock_Lamp_PBR_emissive.jpeg"
    },
    {
      "uri": "textures/Salt_Rock_Lamp_PBR_normal.jpeg"
    }
  ],
  "materials": [
    {
      "doubleSided": true,
      "emissiveFactor": [
        0.5,
        0.5,
        0.5
      ],
      "emissiveTexture": {
        "index": 2
      },
      "name": "Salt_Rock_Lamp_PBR",
      "normalTexture": {
        "index": 3
      },
      "occlusionTexture": {
        "index": 1
      },
      "pbrMetallicRoughness": {
        "baseColorTexture": {
          "index": 0
        },
        "metallicFactor": 0.0,
        "metallicRoughnessTexture": {
          "index": 1
        },
        "roughnessFactor": 0.7
      }
    }
  ],
  "meshes": [
    {
      "name": "Salt Rock Lamp_Salt Rock Lamp PBR_0",
      "primitives": [
        {
          "attributes": {
            "NORMAL": 1,
            "POSITION": 0,
            "TANGENT": 2,
            "TEXCOORD_0": 3,
            "TEXCOORD_1": 4
          },
          "indices": 5,
          "material": 0,
          "mode": 4
        }
      ]
    }
  ],
  "nodes": [
    {
      "children": [
        1
      ],
      "matrix": [
        1.0,
        0.0,
        0.0,
        0.0,
        0.0,
        2.220446049250313e-16,
        -1.0,
        0.0,
        0.0,
        1.0,
        2.220446049250313e-16,
        0.0,
        0.0,
        0.0,
        0.0,
        1.0
      ],
      "name": "Sketchfab_model"
    },
    {
      "children": [
        2
      ],
      "matrix": [
        0.009999999776482582,
        0.0,
        0.0,
        0.0,
        0.0,
        0.0,
        0.009999999776482582,
        0.0,
        0.0,
        -0.009999999776482582,
        0.0,
        0.0,
        0.0,
        0.0,
        0.0,
        1.0
      ],
      "name": "5884dc7003004c0ca18a8460a7541505.fbx"
    },
    {
      "children": [
        3
      ],
      "name": "RootNode"
    },
    {
      "children": [
        4
      ],
      "matrix": [
        100.0,
        0.0,
        0.0,
        0.0,
        0.0,
        -1.629206793918314e-05,
        -99.99999999999868,
        0.0,
        0.0,
        99.99999999999868,
        -1.629206793918314e-05,
        0.0,
        0.0,
        0.0,
        0.0,
        1.0
      ],
      "name": "Salt Rock Lamp"
    },
    {
      "mesh": 0,
      "name": "Salt Rock Lamp_Salt Rock Lamp PBR_0"
    }
  ],
  "samplers": [
    {
      "magFilter": 9729,
      "minFilter": 9987,
      "wrapS": 10497,
      "wrapT": 10497
    }
  ],
  "scene": 0,
  "scenes": [
    {
      "name": "Sketchfab_Scene",
      "nodes": [
        0
      ]
    }
  ],
  "textures": [
    {
      "sampler": 0,
      "source": 0
    },
    {
      "sampler": 0,
      "source": 1
    },
    {
      "sampler": 0,
      "source": 2
    },
    {
      "sampler": 0,
      "source": 3
    }
  ]
}
