{
  "accessors": [
    {
      "bufferView": 2,
      "componentType": 5126,
      "count": 732,
      "max": [
        10.688458442687988,
        20.92123031616211,
        5.0
      ],
      "min": [
        -7.5,
        -2.0440627679363388e-07,
        -5.0
      ],
      "type": "VEC3"
    },
    {
      "bufferView": 2,
      "byteOffset": 8784,
      "componentType": 5126,
      "count": 732,
      "max": [
        0.9999564290046692,
        0.9999934434890747,
        0.9999934434890747
      ],
      "min": [
        -0.9999301433563232,
        -0.9999998211860657,
        -0.9999934434890747
      ],
      "type": "VEC3"
    },
    {
      "bufferView": 3,
      "componentType": 5126,
      "count": 732,
      "max": [
        0.9968363642692566,
        0.9974645972251892,
        0.999999463558197,
        1.0
      ],
      "min": [
        -0.9999986886978149,
        -0.9992672204971313,
        -0.9999422430992126,
        1.0
      ],
      "type": "VEC4"
    },
    {
      "bufferView": 1,
      "componentType": 5126,
      "count": 732,
      "max": [
        0.9970657229423523,
        0.9973220229148865
      ],
      "min": [
        0.002671303693205118,
        0.002673758426681161
      ],
      "type": "VEC2"
    },
    {
      "bufferView": 1,
      "byteOffset": 5856,
      "componentType": 5126,
      "count": 732,
      "max": [
        0.9970657229423523,
        0.9973220229148865
      ],
      "min": [
        0.002671303693205118,
        0.002673758426681161
      ],
      "type": "VEC2"
    },
    {
      "bufferView": 1,
      "byteOffset": 11712,
      "componentType": 5126,
      "count": 732,
      "max": [
        0.9970657229423523,
        0.9973220229148865
      ],
      "min": [
        0.002671303693205118,
        0.002673758426681161
      ],
      "type": "VEC2"
    },
    {
      "bufferView": 0,
      "componentType": 5125,
      "count": 3156,
      "type": "SCALAR"
    }
  ],
  "asset": {
    "extras": {
      "author": "ValeGoG (https://sketchfab.com/ValeGoG)",
      "license": "CC-BY-4.0 (http://creativecommons.org/licenses/by/4.0/)",
      "source": "https://sketchfab.com/3d-models/desktop-microphone-a5e91a1011384a22a477833d8bc05a00",
      "title": "Desktop Microphone"
    },
    "generator": "Sketchfab-12.66.0",
    "version": "2.0"
  },
  "bufferViews": [
    {
      "buffer": 0,
      "byteLength": 12624,
      "name": "floatBufferViews",
      "target": 34963
    },
    {
      "buffer": 0,
      "byteLength": 17568,
      "byteOffset": 12624,
      "byteStride": 8,
      "name": "floatBufferViews",
      "target": 34962
    },
    {
      "buffer": 0,
      "byteLength": 17568,
      "byteOffset": 30192,
      "byteStride": 12,
      "name": "floatBufferViews",
      "target": 34962
    },
    {
      "buffer": 0,
      "byteLength": 11712,
      "byteOffset": 47760,
      "byteStride": 16,
      "name": "floatBufferViews",
      "target": 34962
    }
  ],
  "buffers": [
    {
      "byteLength": 59472,
      "uri": "scene.bin"
    }
  ],
  "images": [
    {
      "uri": "textures/MicrophoneMat_baseColor.png"
    },
    {
      "uri": "textures/MicrophoneMat_metallicRoughness.png"
    },
    {
      "uri": "textures/MicrophoneMat_normal.png"
    }
  ],
  "materials": [
    {
      "doubleSided": true,
      "name": "MicrophoneMat",
      "normalTexture": {
        "index": 2
      },
      "pbrMetallicRoughness": {
        "baseColorTexture": {
          "index": 0
        },
        "metallicRoughnessTexture": {
          "index": 1
        }
      }
    }
  ],
  "meshes": [
    {
      "name": "Cube.060_MicrophoneMat_0",
      "primitives": [
        {
          "attributes": {
            "NORMAL": 1,
            "POSITION": 0,
            "TANGENT": 2,
            "TEXCOORD_0": 3,
            "TEXCOORD_1": 4,
            "TEXCOORD_2": 5
          },
          "indices": 6,
          "material": 0,
          "mode": 4
        }
      ]
    }
  ],
  "nodes": [
    {
      "children": [
        1
      ],
      "matrix": [
        1.0,
        0.0,
        0.0,
        0.0,
        0.0,
        2.220446049250313e-16,
        -1.0,
        0.0,
        0.0,
        1.0,
        2.220446049250313e-16,
        0.0,
        0.0,
        0.0,
        0.0,
        1.0
      ],
      "name": "Sketchfab_model"
    },
    {
      "children": [
        2
      ],
      "matrix": [
        1.0,
        0.0,
        0.0,
        0.0,
        0.0,
        0.0,
        1.0,
        0.0,
        0.0,
        -1.0,
        0.0,
        0.0,
        0.0,
        0.0,
        0.0,
        1.0
      ],
      "name": "465016ff79cf48ce8cab4eb93b004b51.fbx"
    },
    {
      "children": [
        3
      ],
      "name": "RootNode"
    },
    {
      "children": [
        4
      ],
      "matrix": [
        1.0,
        0.0,
        0.0,
        0.0,
        0.0,
        0.999999999999999,
        4.371138828673792e-08,
        0.0,
        0.0,
        -4.371138828673792e-08,
        0.999999999999999,
        0.0,
        0.0,
        0.0,
        0.0,
        1.0
      ],
      "name": "Cube.060"
    },
    {
      "mesh": 0,
      "name": "Cube.060_MicrophoneMat_0"
    }
  ],
  "samplers": [
    {
      "magFilter": 9729,
      "minFilter": 9987,
      "wrapS": 10497,
      "wrapT": 10497
    }
  ],
  "scene": 0,
  "scenes": [
    {
      "name": "Sketchfab_Scene",
      "nodes": [
        0
      ]
    }
  ],
  "textures": [
    {
      "sampler": 0,
      "source": 0
    },
    {
      "sampler": 0,
      "source": 1
    },
    {
      "sampler": 0,
      "source": 2
    }
  ]
}
