{
  "accessors": [
    {
      "bufferView": 2,
      "componentType": 5126,
      "count": 1620,
      "max": [
        26.61361312866211,
        48.41508865356445,
        26.591304779052734
      ],
      "min": [
        -26.618680953979492,
        -1.171152949333191,
        -26.566267013549805
      ],
      "type": "VEC3"
    },
    {
      "bufferView": 2,
      "byteOffset": 19440,
      "componentType": 5126,
      "count": 1620,
      "max": [
        0.9999455213546753,
        0.9999948740005493,
        0.9999455809593201
      ],
      "min": [
        -0.9999455213546753,
        -0.9992989301681519,
        -0.9999455213546753
      ],
      "type": "VEC3"
    },
    {
      "bufferView": 3,
      "componentType": 5126,
      "count": 1620,
      "max": [
        0.9999991059303284,
        0.8451103568077087,
        0.9999990463256836,
        1.0
      ],
      "min": [
        -0.9999991059303284,
        -0.8857101798057556,
        -0.9999991059303284,
        1.0
      ],
      "type": "VEC4"
    },
    {
      "bufferView": 1,
      "componentType": 5126,
      "count": 1620,
      "max": [
        0.9886666536331177,
        0.9900000095367432
      ],
      "min": [
        0.009999999776482582,
        0.009999999776482582
      ],
      "type": "VEC2"
    },
    {
      "bufferView": 0,
      "componentType": 5125,
      "count": 7128,
      "type": "SCALAR"
    }
  ],
  "asset": {
    "extras": {
      "author": "koss2712 (https://sketchfab.com/koss2712)",
      "license": "CC-BY-4.0 (http://creativecommons.org/licenses/by/4.0/)",
      "source": "https://sketchfab.com/3d-models/wicker-basket-01-d0153e62dfbb4659b0cb55d5bf51a9d1",
      "title": "Wicker basket 01"
    },
    "generator": "Sketchfab-12.67.0",
    "version": "2.0"
  },
  "bufferViews": [
    {
      "buffer": 0,
      "byteLength": 28512,
      "name": "floatBufferViews",
      "target": 34963
    },
    {
      "buffer": 0,
      "byteLength": 12960,
      "byteOffset": 28512,
      "byteStride": 8,
      "name": "floatBufferViews",
      "target": 34962
    },
    {
      "buffer": 0,
      "byteLength": 38880,
      "byteOffset": 41472,
      "byteStride": 12,
      "name": "floatBufferViews",
      "target": 34962
    },
    {
      "buffer": 0,
      "byteLength": 25920,
      "byteOffset": 80352,
      "byteStride": 16,
      "name": "floatBufferViews",
      "target": 34962
    }
  ],
  "buffers": [
    {
      "byteLength": 106272,
      "uri": "scene.bin"
    }
  ],
  "images": [
    {
      "uri": "textures/material_baseColor.png"
    },
    {
      "uri": "textures/material_metallicRoughness.png"
    },
    {
      "uri": "textures/material_normal.png"
    }
  ],
  "materials": [
    {
      "alphaCutoff": 0.6,
      "alphaMode": "MASK",
      "doubleSided": true,
      "name": "material",
      "normalTexture": {
        "index": 2
      },
      "pbrMetallicRoughness": {
        "baseColorTexture": {
          "index": 0
        },
        "metallicFactor": 0.0,
        "metallicRoughnessTexture": {
          "index": 1
        }
      }
    }
  ],
  "meshes": [
    {
      "name": "low_low_0",
      "primitives": [
        {
          "attributes": {
            "NORMAL": 1,
            "POSITION": 0,
            "TANGENT": 2,
            "TEXCOORD_0": 3
          },
          "indices": 4,
          "material": 0,
          "mode": 4
        }
      ]
    }
  ],
  "nodes": [
    {
      "children": [
        1
      ],
      "matrix": [
        0.011964721605181694,
        0.0,
        0.0,
        0.0,
        0.0,
        2.6567018818605557e-18,
        -0.011964721605181694,
        0.0,
        0.0,
        0.011964721605181694,
        2.6567018818605557e-18,
        0.0,
        0.0,
        0.0,
        0.0,
        1.0
      ],
      "name": "Sketchfab_model"
    },
    {
      "children": [
        2
      ],
      "matrix": [
        1.0,
        0.0,
        0.0,
        0.0,
        0.0,
        0.0,
        1.0,
        0.0,
        0.0,
        -1.0,
        0.0,
        0.0,
        0.0,
        0.0,
        0.0,
        1.0
      ],
      "name": "486d5f19af66407e97433a8e7b3675bc.fbx"
    },
    {
      "children": [
        3
      ],
      "name": "RootNode"
    },
    {
      "children": [
        4
      ],
      "name": "low"
    },
    {
      "mesh": 0,
      "name": "low_low_0"
    }
  ],
  "samplers": [
    {
      "magFilter": 9729,
      "minFilter": 9987,
      "wrapS": 10497,
      "wrapT": 10497
    }
  ],
  "scene": 0,
  "scenes": [
    {
      "name": "Sketchfab_Scene",
      "nodes": [
        0
      ]
    }
  ],
  "textures": [
    {
      "sampler": 0,
      "source": 0
    },
    {
      "sampler": 0,
      "source": 1
    },
    {
      "sampler": 0,
      "source": 2
    }
  ]
}
